<?xml version="1.0" encoding="utf-8"?>
<svg version="1.1" id="Layer_1" xmlns="http://www.w3.org/2000/svg" xmlns:xlink="http://www.w3.org/1999/xlink" x="0px" y="0px"
	 viewBox="0 0 300 100" style="enable-background:new 0 0 300 100;" xml:space="preserve">
<g>
	<path d="M32.37,59.74v-28.4h5.78v23.57h14.38v4.82H32.37z"/>
	<path d="M55.34,49.08c0-1.82,0.45-3.59,1.35-5.29c0.9-1.71,2.17-3.01,3.82-3.91c1.65-0.9,3.49-1.35,5.52-1.35
		c3.14,0,5.71,1.02,7.71,3.06c2,2.04,3.01,4.61,3.01,7.72c0,3.14-1.01,5.74-3.04,7.8c-2.02,2.06-4.57,3.1-7.65,3.1
		c-1.9,0-3.71-0.43-5.44-1.29c-1.73-0.86-3.04-2.12-3.94-3.78S55.34,51.46,55.34,49.08z M60.96,49.37c0,2.06,0.49,3.63,1.46,4.73
		s2.18,1.64,3.61,1.64c1.43,0,2.63-0.55,3.6-1.64c0.97-1.09,1.46-2.68,1.46-4.77c0-2.03-0.49-3.59-1.46-4.69
		c-0.97-1.09-2.17-1.64-3.6-1.64c-1.43,0-2.64,0.55-3.61,1.64S60.96,47.31,60.96,49.37z"/>
	<path d="M86.3,59.74h-5.49V39h5.1v2.95c0.87-1.39,1.66-2.31,2.35-2.75c0.7-0.44,1.49-0.66,2.37-0.66c1.25,0,2.45,0.35,3.61,1.04
		l-1.7,4.79c-0.92-0.6-1.78-0.9-2.58-0.9c-0.77,0-1.42,0.21-1.95,0.63c-0.53,0.42-0.95,1.19-1.26,2.29
		c-0.31,1.11-0.46,3.42-0.46,6.95V59.74z"/>
	<path d="M108.62,53.14l5.47,0.92c-0.7,2-1.81,3.53-3.33,4.58c-1.52,1.05-3.42,1.57-5.69,1.57c-3.61,0-6.28-1.18-8.01-3.54
		c-1.37-1.89-2.05-4.27-2.05-7.15c0-3.44,0.9-6.13,2.7-8.08c1.8-1.95,4.07-2.92,6.82-2.92c3.09,0,5.52,1.02,7.3,3.06
		c1.78,2.04,2.64,5.16,2.56,9.37h-13.75c0.04,1.63,0.48,2.89,1.33,3.8c0.85,0.91,1.9,1.36,3.16,1.36c0.86,0,1.58-0.23,2.17-0.7
		S108.32,54.18,108.62,53.14z M108.93,47.59c-0.04-1.59-0.45-2.8-1.23-3.62c-0.78-0.83-1.73-1.24-2.85-1.24
		c-1.2,0-2.19,0.44-2.97,1.31c-0.78,0.87-1.17,2.06-1.15,3.55H108.93z"/>
	<path d="M118.44,39h5.06v2.83c1.81-2.2,3.96-3.3,6.47-3.3c1.33,0,2.48,0.27,3.46,0.82s1.78,1.37,2.4,2.48
		c0.91-1.11,1.89-1.93,2.95-2.48s2.18-0.82,3.38-0.82c1.52,0,2.81,0.31,3.87,0.93c1.05,0.62,1.84,1.53,2.36,2.72
		c0.38,0.89,0.57,2.32,0.57,4.3v13.26h-5.49V47.88c0-2.06-0.19-3.39-0.57-3.98c-0.51-0.78-1.29-1.17-2.34-1.17
		c-0.77,0-1.49,0.23-2.17,0.7c-0.68,0.47-1.17,1.16-1.46,2.06c-0.3,0.91-0.45,2.33-0.45,4.29v9.96h-5.49V48.37
		c0-2.02-0.1-3.32-0.29-3.91s-0.5-1.02-0.91-1.31c-0.41-0.29-0.97-0.43-1.67-0.43c-0.85,0-1.61,0.23-2.29,0.68
		c-0.68,0.46-1.16,1.11-1.46,1.97s-0.44,2.29-0.44,4.28v10.08h-5.49V39z"/>
	<path d="M165.54,36.18v-5.08h5.49v5.08H165.54z M165.54,59.74V39h5.49v20.74H165.54z"/>
	<path d="M176.49,39h5.12v3.05c0.66-1.04,1.56-1.89,2.7-2.54c1.13-0.65,2.39-0.98,3.77-0.98c2.41,0,4.45,0.94,6.13,2.83
		c1.68,1.89,2.52,4.52,2.52,7.89c0,3.46-0.85,6.16-2.54,8.08s-3.74,2.88-6.15,2.88c-1.15,0-2.18-0.23-3.12-0.68
		s-1.91-1.24-2.94-2.34v10.45h-5.49V39z M181.92,49.02c0,2.33,0.46,4.05,1.39,5.17s2.05,1.67,3.38,1.67c1.28,0,2.34-0.51,3.18-1.53
		s1.27-2.7,1.27-5.03c0-2.17-0.44-3.79-1.31-4.84s-1.95-1.58-3.24-1.58c-1.34,0-2.45,0.52-3.34,1.55S181.92,46.99,181.92,49.02z"/>
	<path d="M199.15,53.82l5.51-0.84c0.23,1.07,0.71,1.88,1.43,2.43s1.72,0.83,3.01,0.83c1.42,0,2.49-0.26,3.2-0.78
		c0.48-0.36,0.72-0.85,0.72-1.46c0-0.42-0.13-0.76-0.39-1.04c-0.27-0.26-0.89-0.5-1.84-0.72c-4.43-0.98-7.23-1.87-8.42-2.68
		c-1.64-1.12-2.46-2.68-2.46-4.67c0-1.8,0.71-3.31,2.13-4.53c1.42-1.22,3.62-1.84,6.6-1.84c2.84,0,4.95,0.46,6.33,1.39
		c1.38,0.92,2.33,2.29,2.85,4.1l-5.18,0.96c-0.22-0.81-0.64-1.43-1.26-1.86s-1.5-0.64-2.65-0.64c-1.45,0-2.48,0.2-3.11,0.61
		c-0.42,0.29-0.62,0.66-0.62,1.11c0,0.39,0.18,0.72,0.55,1c0.5,0.36,2.2,0.88,5.13,1.54s4.96,1.48,6.12,2.44
		c1.15,0.98,1.72,2.34,1.72,4.08c0,1.9-0.79,3.54-2.38,4.9s-3.94,2.05-7.05,2.05c-2.83,0-5.06-0.57-6.71-1.72
		S199.66,55.79,199.15,53.82z"/>
	<path d="M236.98,59.74v-3.11c-0.75,1.11-1.75,1.98-2.98,2.62s-2.53,0.96-3.9,0.96c-1.39,0-2.64-0.31-3.75-0.92s-1.91-1.47-2.4-2.58
		s-0.74-2.64-0.74-4.59V39h5.49v9.53c0,2.92,0.1,4.7,0.3,5.36s0.57,1.18,1.1,1.56s1.21,0.58,2.03,0.58c0.94,0,1.78-0.26,2.52-0.77
		s1.25-1.15,1.52-1.91s0.41-2.63,0.41-5.6V39h5.49v20.74H236.98z"/>
	<path d="M247.35,39h5.06v2.83c1.81-2.2,3.96-3.3,6.46-3.3c1.33,0,2.48,0.27,3.46,0.82s1.78,1.37,2.4,2.48
		c0.91-1.11,1.89-1.93,2.95-2.48s2.18-0.82,3.38-0.82c1.52,0,2.81,0.31,3.87,0.93c1.05,0.62,1.84,1.53,2.36,2.72
		c0.38,0.89,0.57,2.32,0.57,4.3v13.26h-5.49V47.88c0-2.06-0.19-3.39-0.57-3.98c-0.51-0.78-1.29-1.17-2.34-1.17
		c-0.77,0-1.49,0.23-2.17,0.7s-1.17,1.16-1.46,2.06c-0.3,0.91-0.45,2.33-0.45,4.29v9.96h-5.49V48.37c0-2.02-0.1-3.32-0.29-3.91
		s-0.5-1.02-0.91-1.31c-0.41-0.29-0.97-0.43-1.67-0.43c-0.85,0-1.61,0.23-2.29,0.68c-0.68,0.46-1.16,1.11-1.46,1.97
		s-0.44,2.29-0.44,4.28v10.08h-5.49V39z"/>
</g>
</svg>
